<?xml version="1.0" encoding="UTF-8" standalone="no"?>
<!-- Created with Inkscape (http://www.inkscape.org/) -->

<svg
   xmlns:dc="http://purl.org/dc/elements/1.1/"
   xmlns:cc="http://creativecommons.org/ns#"
   xmlns:rdf="http://www.w3.org/1999/02/22-rdf-syntax-ns#"
   xmlns:svg="http://www.w3.org/2000/svg"
   xmlns="http://www.w3.org/2000/svg"
   xmlns:sodipodi="http://sodipodi.sourceforge.net/DTD/sodipodi-0.dtd"
   xmlns:inkscape="http://www.inkscape.org/namespaces/inkscape"
   version="1.1"
   id="svg6099"
   width="71.738892"
   height="43.519188"
   viewBox="0 0 71.738892 43.519188"
   sodipodi:docname="421.svg"
   inkscape:version="0.92.5 (2060ec1f9f, 2020-04-08)">
  <metadata
     id="metadata6105">
    <rdf:RDF>
      <cc:Work
         rdf:about="">
        <dc:format>image/svg+xml</dc:format>
        <dc:type
           rdf:resource="http://purl.org/dc/dcmitype/StillImage" />
        <dc:title></dc:title>
      </cc:Work>
    </rdf:RDF>
  </metadata>
  <defs
     id="defs6103" />
  <sodipodi:namedview
     pagecolor="#ffffff"
     bordercolor="#666666"
     borderopacity="1"
     objecttolerance="10"
     gridtolerance="10"
     guidetolerance="10"
     inkscape:pageopacity="0"
     inkscape:pageshadow="2"
     inkscape:window-width="1366"
     inkscape:window-height="705"
     id="namedview6101"
     showgrid="false"
     inkscape:zoom="2.5153847"
     inkscape:cx="0.53156"
     inkscape:cy="21.343048"
     inkscape:window-x="-8"
     inkscape:window-y="-8"
     inkscape:window-maximized="1"
     inkscape:current-layer="svg6099" />
  <g
     id="g6109"
     transform="translate(-5.4317382,-17.823861)">
    <path
       style="fill:#d4d1d9;stroke-width:1.33333337"
       d="m 22.63927,58.615477 c -1.158466,-2.164616 -0.771204,-4.210485 1.902475,-10.050568 l 3.357026,-7.332712 -4.613513,-4.89119 C 17.745574,30.4679 16.531933,27.238863 18.825498,24.475285 21.822414,20.864224 32.695615,23.6971 44.94966,31.281609 l 5.616328,3.476167 2.717006,-5.325771 c 1.494353,-2.929173 2.717005,-5.649673 2.717005,-6.045554 0,-1.636947 -4.168531,-0.551254 -6.381967,1.662182 -1.567838,1.567839 -3.487909,2.120888 -5.617726,1.618106 -3.221649,-0.760528 -3.215621,-0.779187 1.381965,-4.278155 6.139197,-4.672201 10.984837,-5.826047 13.209529,-3.145459 1.424302,1.71618 1.335838,3.192863 -0.504369,8.419048 C 56.860035,31.147977 55.581163,34.9 55.245494,36 c -0.335671,1.1 1.514934,4.4 4.112454,7.333333 8.983859,10.145312 3.865416,15.531967 -10.015596,10.540426 -6.23639,-2.242575 -6.583083,-2.234476 -10.067638,0.235176 -11.679899,8.278042 -14.245093,8.972953 -16.635444,4.506542 z M 41.579227,45.751012 c 3.812155,-3.860104 6.666347,-7.264456 6.342648,-7.565225 -0.323699,-0.30077 -3.539603,-2.405207 -7.146454,-4.67653 -5.375536,-3.385105 -6.924162,-3.833349 -8.589278,-2.486133 -1.616114,1.307571 -1.826365,1.302333 -1.028522,-0.02563 1.098098,-1.827709 -4.807874,-4.728101 -8.249531,-4.051301 -1.492566,0.293512 -1.067278,1.457609 1.758638,4.813731 2.06541,2.452928 4.098817,3.825434 4.560577,3.07829 0.458316,-0.741569 0.833301,0.982639 0.833301,3.831572 0,3.619236 0.995168,6.304382 3.303029,8.912171 2.921886,3.301612 2.953218,3.437005 0.271526,1.173333 -3.588804,-3.029382 -5.203715,-1.912534 -6.482919,4.483491 l -0.897759,4.488789 4.196778,-2.479097 c 2.308226,-1.363503 7.315812,-5.637364 11.127966,-9.497469 z m 18.420772,5.056661 c 0,-0.655778 -1.836971,-3.158809 -4.082156,-5.562288 l -4.082156,-4.369962 -4.895621,4.895622 c -5.51572,5.515719 -3.294508,6.898674 3.213454,2.000736 2.115564,-1.592186 3.096479,-2.072186 2.179812,-1.066666 -2.271148,2.491293 -2.09395,3.65436 0.666667,4.375784 4.091371,1.069188 7,0.955657 7,-0.273226 z M 5.4385964,43.222223 c 0.063979,-1.553258 0.3799204,-1.8692 0.8055555,-0.805556 0.3851608,0.9625 0.3377924,2.1125 -0.1052627,2.555556 -0.4430556,0.443054 -0.7581872,-0.344446 -0.7002928,-1.75 z M 76.309336,40 c 0,-2.566667 0.274393,-3.616667 0.609764,-2.333333 0.335369,1.283333 0.335369,3.383333 0,4.666666 C 76.583729,43.616667 76.309336,42.566667 76.309336,40 Z M 5.4385964,36.555556 c 0.063979,-1.553257 0.3799204,-1.8692 0.8055555,-0.805556 0.3851608,0.9625 0.3377924,2.1125 -0.1052627,2.555556 -0.4430556,0.443055 -0.7581872,-0.344445 -0.7002928,-1.75 z"
       id="path6123"
       inkscape:connector-curvature="0" />
    <path
       style="fill:#ae9eca;stroke-width:1.33333337"
       d="m 23.555556,59.111111 c -1.592131,-1.59213 -0.884578,-6.324859 1.845112,-12.341708 l 2.675435,-5.897264 -3.878059,-4.102736 c -5.715034,-6.046135 -7.412879,-9.835667 -5.460643,-12.187966 2.971041,-3.579886 11.553844,-1.575865 23.145601,5.404327 4.275374,2.574497 8.25109,4.680903 8.834925,4.680903 1.402684,0 5.894723,-11.831794 4.878033,-12.848483 -0.433966,-0.433967 -2.84141,0.479409 -5.349874,2.029725 -4.871395,3.010688 -7.57942,3.580264 -7.57942,1.59417 0,-2.03494 8.739226,-6.775412 12.490712,-6.775412 4.867536,0 5.108685,4.971157 0.663798,13.683854 l -2.567584,5.032882 4.669499,4.80803 c 10.660949,10.977228 5.774788,16.969523 -9.140211,11.209382 -2.58919,-0.99994 -3.439341,-1.944355 -2.550453,-2.833243 0.888889,-0.888889 2.545751,-0.872373 4.970585,0.04955 4.565731,1.735888 8.796987,1.782036 8.796987,0.09594 0,-0.707816 -1.914476,-3.467405 -4.254392,-6.132422 -4.011419,-4.568754 -4.356947,-4.704662 -6.05012,-2.379728 -9.022518,12.38902 -22.161418,20.888714 -26.139931,16.910199 z m 10.230163,-5.912907 c 5.757184,-3.8134 14.21428,-12.571959 14.21428,-14.720963 0,-3.311885 -23.87319,-13.715162 -26.179882,-11.408469 -0.512743,0.512743 0.865433,3.182028 3.062615,5.931744 5.498143,6.880787 6.147142,10.393773 3.043926,16.476579 -4.633833,9.083062 -3.409724,9.860498 5.859061,3.721109 z"
       id="path6121"
       inkscape:connector-curvature="0" />
    <path
       style="fill:#9783ba;stroke-width:1.33333337"
       d="m 23.099462,57.871337 c -0.449264,-1.170764 0.545004,-5.414368 2.209487,-9.430229 l 3.02633,-7.301568 -4.007647,-4.236436 C 16.468564,28.595376 16.083161,24 23.24548,24 c 5.957898,0 12.126769,2.27366 20.407124,7.521451 l 6.98594,4.427437 2.680727,-5.25466 c 2.744948,-5.380541 3.460691,-9.364783 1.680728,-9.355911 -0.55,0.0028 -2.964501,1.202742 -5.36556,2.666667 -4.636535,2.826896 -6.967773,3.353473 -6.967773,1.573871 0,-1.667919 10.00082,-6.912188 13.18154,-6.912188 3.786037,0 3.80601,6.170474 0.04384,13.544932 l -2.774616,5.438697 3.947957,4.174852 c 10.77579,11.395089 7.670532,16.371479 -7.161332,11.476523 -3.402116,-1.1228 -4.356037,-1.943644 -3.135429,-2.698022 0.964893,-0.596336 2.68668,-0.609113 3.826193,-0.02839 1.139513,0.580721 3.721843,1.450286 5.738509,1.932369 5.032281,1.202961 4.836504,-1.749132 -0.520633,-7.850575 L 51.625394,39.887981 45.124376,47.18196 C 35.023599,58.514781 25.179694,63.292336 23.099462,57.871337 Z m 11.03382,-4.309198 c 5.709747,-4.140838 13.866717,-12.920416 13.866717,-14.925142 0,-3.549334 -23.446443,-14.322778 -25.909207,-11.905062 -0.762732,0.748782 0.346965,3.197741 2.873746,6.341982 4.911457,6.111652 5.499059,9.9083 2.561403,16.549924 -3.9474,8.924514 -1.927891,10.12824 6.607341,3.938298 z"
       id="path6119"
       inkscape:connector-curvature="0" />
    <path
       style="fill:#8971b1;stroke-width:1.33333337"
       d="m 23.099462,57.871337 c -0.449264,-1.170764 0.523471,-5.362412 2.161632,-9.314772 l 2.978476,-7.186109 -4.786452,-5.591893 c -2.632548,-3.07554 -4.786452,-6.983894 -4.786452,-8.685228 0,-2.687947 0.65526,-3.091628 5,-3.08031 5.136431,0.01339 16.287469,4.540566 23.056877,9.360808 l 3.820077,2.720135 2.04213,-3.116683 c 1.12317,-1.714174 2.425856,-5.035317 2.894856,-7.380317 1.021112,-5.105561 -0.66011,-5.504173 -6.294216,-1.492336 -2.140562,1.524215 -4.625367,2.52682 -5.521791,2.228012 -2.413729,-0.804576 9.072844,-7.975483 11.909112,-7.434691 3.483148,0.664134 3.6816,5.386748 0.526119,12.520236 l -2.738436,6.19069 4.652636,5.435558 c 2.558949,2.989558 4.652635,6.82756 4.652635,8.528895 0,2.696323 -0.641721,3.085616 -4.999999,3.033196 -5.507211,-0.06624 -15.129225,-3.637096 -10.324531,-3.831569 1.471508,-0.05956 4.747312,0.485904 7.279563,1.212145 7.086173,2.032287 7.726758,-0.335431 1.807573,-6.681111 L 51.21798,39.719215 46.191344,45.853561 C 37.086762,56.964505 25.137793,63.183143 23.099462,57.871337 Z m 11.03382,-4.319488 c 2.860028,-2.079817 7.508753,-6.346521 10.3305,-9.481566 L 49.594231,38.3702 43.797115,34.508456 C 37.032271,30.00206 24.354336,24.956963 22.568496,26.060673 c -2.028283,1.253548 -1.442034,2.944258 2.628445,7.580276 4.652316,5.298695 5.247653,9.384231 2.329,15.982892 -3.948879,8.927854 -1.923709,10.131799 6.607341,3.928008 z"
       id="path6117"
       inkscape:connector-curvature="0" />
    <path
       style="fill:#7256a4;stroke-width:1.33333337"
       d="m 23.352346,58.697431 c -1.12466,-1.819738 1.494043,-10.912564 4.052675,-14.071962 2.111372,-2.60712 2.121681,-2.606832 1.474988,0.0412 -0.358186,1.466667 -1.425616,4.593768 -2.37207,6.949114 -0.946453,2.355345 -1.274239,4.729032 -0.728413,5.274858 1.676004,1.676003 9.511649,-3.4206 17.048663,-11.089102 6.96909,-7.090674 7.096434,-7.35422 4.505143,-9.323735 -4.391319,-3.337629 -17.028823,-9.414295 -21.666666,-10.418283 -3.618573,-0.783338 -4.333333,-0.546193 -4.333333,1.437728 0,1.30669 1.908988,4.345375 4.242196,6.752634 2.333208,2.40726 3.824961,4.79407 3.315006,5.304025 -1.600061,1.600063 -10.223869,-8.992412 -10.223869,-12.557804 0,-3.19574 0.277094,-3.308757 6.618436,-2.699435 4.525017,0.434798 9.650817,2.391568 16.205445,6.186416 5.272855,3.052759 9.718253,5.392919 9.878661,5.200359 1.639218,-1.967775 4.630791,-9.472712 4.630791,-11.617231 0,-3.471101 -1.858175,-3.450048 -7.57942,0.08588 -6.507346,4.021762 -7.073316,2.092219 -0.635877,-2.167877 9.648038,-6.384769 13.627958,-1.831947 8.200108,9.380497 l -2.878492,5.94617 4.780174,5.584558 c 2.629095,3.071504 4.780173,6.976556 4.780173,8.677891 0,2.694031 -0.645426,3.087236 -4.999999,3.046088 -2.75,-0.02599 -6.5,-0.904725 -8.333334,-1.952753 -3.990056,-2.280922 -2.474028,-2.487047 4.351247,-0.591612 8.709705,2.418756 9.148936,0.424566 1.804327,-8.191968 l -3.844426,-4.510198 -6.155574,6.867328 c -9.676487,10.795356 -19.68332,16.42664 -22.13656,12.457214 z"
       id="path6115"
       inkscape:connector-curvature="0" />
    <path
       style="fill:#64449a;stroke-width:1.33333337"
       d="m 23.532248,58.037568 c -0.8479,-2.209589 1.30203,-9.359336 4.009607,-13.334243 2.420783,-3.553872 2.278422,-0.608482 -0.200308,4.144266 -2.102299,4.030977 -2.697271,9.82251 -1.008214,9.814092 3.624222,-0.01806 22.999999,-17.105894 22.999999,-20.284094 0,-3.452862 -23.403952,-14.069932 -27.527363,-12.48763 -1.875155,0.719564 -1.8498,1.187008 0.241752,4.456957 1.285137,2.009196 3.450139,4.726457 4.811113,6.038357 1.360975,1.3119 2.459496,2.8119 2.44116,3.333334 -0.06804,1.935008 -10.633328,-10.36129 -10.633328,-12.37549 0,-5.435034 10.8001,-3.640294 23.743557,3.945659 C 46.831388,33.879949 50.723859,36 51.060159,36 c 0.621428,0 6.273173,-12.53552 6.273173,-13.913841 0,-1.652219 -4.598572,-0.60038 -8.842621,2.022586 -2.469892,1.526478 -4.490712,2.138672 -4.490712,1.360432 0,-1.983869 10.525524,-7.141976 12.795936,-6.270737 2.812057,1.079088 2.230888,6.115407 -1.448324,12.550912 l -3.286933,5.749352 5.302993,5.356257 c 3.246299,3.278904 5.302994,6.608087 5.302994,8.583982 0,2.764981 -0.621248,3.219102 -4.333333,3.167585 -2.383333,-0.03308 -6.133333,-0.939617 -8.333333,-2.014537 -3.459447,-1.690284 -3.549539,-1.85533 -0.666667,-1.221302 13.769119,3.028232 14.91184,2.102794 7.902928,-6.40023 -3.721002,-4.514222 -7.902928,-6.580975 -7.902928,-3.905715 0,1.580119 -13.714314,14.988859 -17.443859,17.055188 -4.264255,2.36258 -7.430988,2.331371 -8.357225,-0.08236 z"
       id="path6113"
       inkscape:connector-curvature="0" />
    <path
       style="fill:#5b3a95;stroke-width:1.33333337"
       d="m 44.48201,45.056995 c 2.793532,-3.451987 4.684754,-6.914486 4.202714,-7.694442 -0.482038,-0.779956 -3.9833,-3.199972 -7.780579,-5.377814 -3.79728,-2.177843 -6.271614,-3.965346 -5.49852,-3.972227 C 36.178719,28.005631 39.649557,29.8 43.118597,32 c 7.268978,4.609849 8.287171,4.805051 9.436802,1.809163 0.462387,-1.204962 1.179952,-1.851588 1.594591,-1.436951 0.889484,0.889485 -8.627238,14.072189 -12.24554,16.962703 -1.375875,1.09913 -0.215972,-0.825934 2.57756,-4.27792 z"
       id="path6111"
       inkscape:connector-curvature="0" />
  </g>
</svg>
