<svg
   xmlns="http://www.w3.org/2000/svg"
   width="60" height="60" viewBox="0 0 512 512"
   id="svg10"
   version="1.1">
  <path
     id="path50"
     fill="#8625d2"
     d="m 148,355.46171 c -3.3,-1.91256 -15,-8.71355 -26,-15.11328 C 111,333.9487 95.7,325.10812 88,320.70272 80.3,316.29732 71.9,311.49162 69.3333,310.02339 54.2472,301.39358 29.2402,286.85855 15.6667,278.83022 L 0,269.56391 V 179.30354 89.043176 l 4.6739,-2.66667 c 2.5706,-1.46667 13.4916,-7.76667 24.2687,-14 10.7772,-6.23333 22.3224,-12.90769 25.6559,-14.83191 3.3335,-1.92421 15.661,-9.0473 27.3943,-15.82908 11.7333,-6.78178 23.1333,-13.36409 25.3333,-14.62736 2.2,-1.26326 13.6,-7.87058 25.3334,-14.68293 C 144.3928,5.592866 154.5928,0.01053599 155.3261,2.5994173e-5 156.0595,-0.01067401 162.3595,3.283346 169.3261,7.319616 c 6.9667,4.03626 18.6667,10.82348 26,15.08269 7.3334,4.25921 24.4334,14.13987 38,21.95701 58.8761,33.92454 76.72683,44.46858 77.64633,45.86395 0.5388,0.81761 0.9796,41.086574 0.9796,89.486574 0,48.4 -0.4408,88.65915 -0.9796,89.46476 -0.5388,0.80563 -3.6796,2.96132 -6.9796,4.79044 -3.3,1.82911 -13.80003,7.85288 -23.33333,13.38614 -9.5334,5.53325 -19.8055,11.47756 -22.8271,13.20957 -17.7501,10.17477 -64.2197,36.99497 -68.9861,39.81576 -15.2185,9.00651 -32.7075,18.66109 -33.7198,18.61464 -0.6235,-0.0287 -3.8337,-1.61687 -7.1337,-3.52944 z m 38.3209,-44.60936 c 16.6902,-9.63829 44.4458,-25.63433 61.6791,-35.54677 17.2333,-9.91244 32.3882,-18.67395 33.6775,-19.47003 2.1986,-1.35748 2.3228,-6.11732 2,-76.61617 l -0.3442,-75.16878 -16.6666,-9.553304 c -9.1667,-5.25434 -37.2519,-21.44638 -62.4116,-35.98232 -25.1596,-14.53596 -46.7596,-26.69103 -48,-27.01127 -1.2403,-0.32024 -10.3551,4.14639 -20.2551,9.92584 -9.9,5.77945 -38.55,22.36528 -63.6667,36.85739 L 26.6667,104.6362 v 74.97388 74.97388 l 41,23.56382 c 22.55,12.96009 51.2,29.5089 63.6666,36.77514 12.4667,7.26626 23.1111,13.26586 23.6543,13.33247 0.5431,0.0667 14.6431,-7.76475 31.3333,-17.40304 z m -24.9876,-131.0314 c 0,-67.16111 0.3388,-122.111114 0.7529,-122.111114 0.4141,0 14.9641,8.20606 32.3334,18.23568 17.3692,10.02963 39.9804,23.0427 50.2471,28.917944 10.2666,5.87524 19.1108,11.31918 19.6537,12.09765 0.5429,0.77847 0.8429,29.29231 0.6667,63.36408 L 264.6667,242.27386 252,249.90115 c -6.9667,4.19501 -13.1167,7.66811 -13.6667,7.71799 -0.55,0.0499 -1.0038,-28.2593 -1.0084,-62.9093 l -0.01,-63 -4.0996,-2.33333 c -2.2548,-1.28333 -4.6456,-2.33333 -5.3129,-2.33333 -0.7087,0 -1.3569,28.66392 -1.5586,68.92589 l -0.3454,68.92589 -12,7.00971 c -6.6,3.85533 -12.4455,7.03868 -12.99,7.07411 -0.5446,0.0355 -1.1446,-37.86178 -1.3334,-84.21599 l -0.3437,-84.28039 -4.4971,-3.03042 c -2.4734,-1.66674 -5.0234,-2.70515 -5.6666,-2.30759 -0.652,0.40292 -1.1696,40.77023 -1.1696,91.21061 v 90.48778 l -12.2899,7.1002 c -6.7594,3.9051 -12.7594,7.3002 -13.3333,7.54464 -0.5739,0.24445 -1.0435,-54.50555 -1.0435,-121.66667 z M 126.6667,289.18123 C 117.5,283.81895 95.75,271.18551 78.3333,261.10692 l -31.6666,-18.3247 v -63.23568 -63.23568 l 5.6666,-3.38351 c 19.627,-11.71908 91.0895,-52.550844 91.9729,-52.550844 0.5889,0 0.9109,16.05 0.7156,35.66667 l -0.3551,35.666664 -13,0.38162 -13,0.38161 v -11.96959 c 0,-6.58328 -0.541,-12.30389 -1.2021,-12.71249 -0.6611,-0.40859 -10.7111,4.81231 -22.3333,11.602 L 74,131.73788 v 47.82555 47.82553 l 21.3333,12.42543 c 11.7334,6.83399 21.7956,11.96393 22.3606,11.39989 0.5649,-0.56404 0.8649,-13.88329 0.6666,-29.59832 L 118,193.04318 107,192.65592 96,192.26867 v -13.30949 -13.3095 l 24.3333,0.36342 24.3334,0.36341 0.3457,66.33333 c 0.1902,36.48334 -0.1098,66.30806 -0.6666,66.27716 -0.5569,-0.0309 -8.5125,-4.44349 -17.6791,-9.80577 z"
   />
</svg>
